<?xml version="1.0" encoding="UTF-8"?>
<svg xmlns="http://www.w3.org/2000/svg" width="1160" height="940" viewBox="0 0 1160 940">
<rect width="100%" height="100%" fill="#fafafa"/>
<text x="580" y="24" text-anchor="middle" font-family="Arial,sans-serif" font-size="14" font-weight="bold">SGame · 路径依赖图（Top 节点 + 2-hop）</text>
<defs><marker id="arrow" markerWidth="8" markerHeight="8" refX="6" refY="3" orient="auto"><path d="M0,0 L6,3 L0,6 Z" fill="#555"/></marker></defs>
<rect x="25.0" y="89.0" width="110" height="42" rx="6" fill="#e45756" stroke="#333" stroke-width="1"/>
<text x="80.0" y="106.0" text-anchor="middle" font-family="Arial,sans-serif" font-size="9" fill="#111">surfaceflinger&#10;TID 686</text>
<text x="80.0" y="122.0" text-anchor="middle" font-family="Arial,sans-serif" font-size="8" fill="#333">score 0.267</text>
<rect x="25.0" y="159.0" width="110" height="42" rx="6" fill="#f58518" stroke="#333" stroke-width="1"/>
<text x="80.0" y="176.0" text-anchor="middle" font-family="Arial,sans-serif" font-size="9" fill="#111">CCodecWatchdog&#10;TID 14030</text>
<text x="80.0" y="192.0" text-anchor="middle" font-family="Arial,sans-serif" font-size="8" fill="#333">score 0.233</text>
<rect x="25.0" y="229.0" width="110" height="42" rx="6" fill="#4c78a8" stroke="#333" stroke-width="1"/>
<text x="80.0" y="246.0" text-anchor="middle" font-family="Arial,sans-serif" font-size="9" fill="#111">RenderThread&#10;TID 15393</text>
<text x="80.0" y="262.0" text-anchor="middle" font-family="Arial,sans-serif" font-size="8" fill="#333">score 0.200</text>
<rect x="25.0" y="299.0" width="110" height="42" rx="6" fill="#b279a2" stroke="#333" stroke-width="1"/>
<text x="80.0" y="316.0" text-anchor="middle" font-family="Arial,sans-serif" font-size="9" fill="#111">android.hardw…&#10;TID 1982</text>
<text x="80.0" y="332.0" text-anchor="middle" font-family="Arial,sans-serif" font-size="8" fill="#333">score 0.157</text>
<rect x="25.0" y="369.0" width="110" height="42" rx="6" fill="#b279a2" stroke="#333" stroke-width="1"/>
<text x="80.0" y="386.0" text-anchor="middle" font-family="Arial,sans-serif" font-size="9" fill="#111">s.nexuslaunch…&#10;TID 2224</text>
<text x="80.0" y="402.0" text-anchor="middle" font-family="Arial,sans-serif" font-size="8" fill="#333">score 0.141</text>
<rect x="25.0" y="439.0" width="110" height="42" rx="6" fill="#b279a2" stroke="#333" stroke-width="1"/>
<text x="80.0" y="456.0" text-anchor="middle" font-family="Arial,sans-serif" font-size="9" fill="#111">cent.tmgp.sga…&#10;TID 15364</text>
<text x="80.0" y="472.0" text-anchor="middle" font-family="Arial,sans-serif" font-size="8" fill="#333">score 0.141</text>
<rect x="25.0" y="509.0" width="110" height="42" rx="6" fill="#b279a2" stroke="#333" stroke-width="1"/>
<text x="80.0" y="526.0" text-anchor="middle" font-family="Arial,sans-serif" font-size="9" fill="#111">Thread-72&#10;TID 15573</text>
<text x="80.0" y="542.0" text-anchor="middle" font-family="Arial,sans-serif" font-size="8" fill="#333">score 0.141</text>
<rect x="25.0" y="579.0" width="110" height="42" rx="6" fill="#b279a2" stroke="#333" stroke-width="1"/>
<text x="80.0" y="596.0" text-anchor="middle" font-family="Arial,sans-serif" font-size="9" fill="#111">InputDispatch…&#10;TID 1806</text>
<text x="80.0" y="612.0" text-anchor="middle" font-family="Arial,sans-serif" font-size="8" fill="#333">score 0.141</text>
<rect x="25.0" y="649.0" width="110" height="42" rx="6" fill="#b279a2" stroke="#333" stroke-width="1"/>
<text x="80.0" y="666.0" text-anchor="middle" font-family="Arial,sans-serif" font-size="9" fill="#111">UnityGfxDevic…&#10;TID 15551</text>
<text x="80.0" y="682.0" text-anchor="middle" font-family="Arial,sans-serif" font-size="8" fill="#333">score 0.141</text>
<rect x="25.0" y="719.0" width="110" height="42" rx="6" fill="#bab0ac" stroke="#333" stroke-width="1"/>
<text x="80.0" y="736.0" text-anchor="middle" font-family="Arial,sans-serif" font-size="9" fill="#111">futex_15391&#10;TID -16391</text>
<rect x="25.0" y="789.0" width="110" height="42" rx="6" fill="#bab0ac" stroke="#333" stroke-width="1"/>
<text x="80.0" y="806.0" text-anchor="middle" font-family="Arial,sans-serif" font-size="9" fill="#111">futex_18016&#10;TID -19016</text>
<rect x="245.0" y="264.0" width="110" height="42" rx="6" fill="#e45756" stroke="#333" stroke-width="1"/>
<text x="300.0" y="281.0" text-anchor="middle" font-family="Arial,sans-serif" font-size="9" fill="#111">surfaceflinger&#10;TID 600</text>
<text x="300.0" y="297.0" text-anchor="middle" font-family="Arial,sans-serif" font-size="8" fill="#333">score 0.207</text>
<rect x="245.0" y="334.0" width="110" height="42" rx="6" fill="#72b7b2" stroke="#333" stroke-width="1"/>
<text x="300.0" y="351.0" text-anchor="middle" font-family="Arial,sans-serif" font-size="9" fill="#111">binder:600_3&#10;TID 1965</text>
<text x="300.0" y="367.0" text-anchor="middle" font-family="Arial,sans-serif" font-size="8" fill="#333">score 0.157</text>
<rect x="245.0" y="404.0" width="110" height="42" rx="6" fill="#b279a2" stroke="#333" stroke-width="1"/>
<text x="300.0" y="421.0" text-anchor="middle" font-family="Arial,sans-serif" font-size="9" fill="#111">android.hardw…&#10;TID 937</text>
<text x="300.0" y="437.0" text-anchor="middle" font-family="Arial,sans-serif" font-size="8" fill="#333">score 0.040</text>
<rect x="245.0" y="474.0" width="110" height="42" rx="6" fill="#bab0ac" stroke="#333" stroke-width="1"/>
<text x="300.0" y="491.0" text-anchor="middle" font-family="Arial,sans-serif" font-size="9" fill="#111">futex_686&#10;TID -1686</text>
<rect x="245.0" y="544.0" width="110" height="42" rx="6" fill="#bab0ac" stroke="#333" stroke-width="1"/>
<text x="300.0" y="561.0" text-anchor="middle" font-family="Arial,sans-serif" font-size="9" fill="#111">futex_1982&#10;TID -2982</text>
<rect x="245.0" y="614.0" width="110" height="42" rx="6" fill="#bab0ac" stroke="#333" stroke-width="1"/>
<text x="300.0" y="631.0" text-anchor="middle" font-family="Arial,sans-serif" font-size="9" fill="#111">futex_600&#10;TID -1600</text>
<rect x="465.0" y="334.0" width="110" height="42" rx="6" fill="#72b7b2" stroke="#333" stroke-width="1"/>
<text x="520.0" y="351.0" text-anchor="middle" font-family="Arial,sans-serif" font-size="9" fill="#111">HwBinder:602_1&#10;TID 653</text>
<text x="520.0" y="367.0" text-anchor="middle" font-family="Arial,sans-serif" font-size="8" fill="#333">score 0.157</text>
<rect x="465.0" y="404.0" width="110" height="42" rx="6" fill="#bab0ac" stroke="#333" stroke-width="1"/>
<text x="520.0" y="421.0" text-anchor="middle" font-family="Arial,sans-serif" font-size="9" fill="#111">futex_15811&#10;TID -16811</text>
<rect x="465.0" y="474.0" width="110" height="42" rx="6" fill="#bab0ac" stroke="#333" stroke-width="1"/>
<text x="520.0" y="491.0" text-anchor="middle" font-family="Arial,sans-serif" font-size="9" fill="#111">futex_1965&#10;TID -2965</text>
<rect x="465.0" y="544.0" width="110" height="42" rx="6" fill="#bab0ac" stroke="#333" stroke-width="1"/>
<text x="520.0" y="561.0" text-anchor="middle" font-family="Arial,sans-serif" font-size="9" fill="#111">futex_11456&#10;TID -12456</text>
<rect x="685.0" y="439.0" width="110" height="42" rx="6" fill="#bab0ac" stroke="#333" stroke-width="1"/>
<text x="740.0" y="456.0" text-anchor="middle" font-family="Arial,sans-serif" font-size="9" fill="#111">futex_653&#10;TID -1653</text>
<rect x="905.0" y="404.0" width="110" height="42" rx="6" fill="#72b7b2" stroke="#333" stroke-width="1"/>
<text x="960.0" y="421.0" text-anchor="middle" font-family="Arial,sans-serif" font-size="9" fill="#111">HwBinder:910_5&#10;TID 3879</text>
<text x="960.0" y="437.0" text-anchor="middle" font-family="Arial,sans-serif" font-size="8" fill="#333">score 0.157</text>
<rect x="905.0" y="474.0" width="110" height="42" rx="6" fill="#72b7b2" stroke="#333" stroke-width="1"/>
<text x="960.0" y="491.0" text-anchor="middle" font-family="Arial,sans-serif" font-size="9" fill="#111">binder:981_5&#10;TID 16798</text>
<text x="960.0" y="507.0" text-anchor="middle" font-family="Arial,sans-serif" font-size="8" fill="#333">score 0.140</text>
<line x1="960.0" y1="495.0" x2="960.0" y2="425.0" stroke="#0077b6" stroke-width="1.2" marker-end="url(#arrow)"/>
<text x="960.0" y="456.0" text-anchor="middle" font-family="Arial,sans-serif" font-size="7" fill="#0077b6">BINDER_CALL x2 0.22ms</text>
<line x1="300.0" y1="285.0" x2="300.0" y2="355.0" stroke="#0077b6" stroke-width="1.2" marker-end="url(#arrow)"/>
<text x="300.0" y="316.0" text-anchor="middle" font-family="Arial,sans-serif" font-size="7" fill="#0077b6">BINDER_CALL 0.02ms</text>
<line x1="300.0" y1="285.0" x2="520.0" y2="355.0" stroke="#0077b6" stroke-width="1.2" marker-end="url(#arrow)"/>
<text x="410.0" y="316.0" text-anchor="middle" font-family="Arial,sans-serif" font-size="7" fill="#0077b6">BINDER_CALL x3 0.35ms</text>
<line x1="300.0" y1="285.0" x2="300.0" y2="635.0" stroke="#6a4c93" stroke-width="1.2" marker-end="url(#arrow)"/>
<text x="300.0" y="456.0" text-anchor="middle" font-family="Arial,sans-serif" font-size="7" fill="#6a4c93">FUTEX_WAIT x7716 350.51ms</text>
<line x1="80.0" y1="390.0" x2="300.0" y2="355.0" stroke="#0077b6" stroke-width="1.2" marker-end="url(#arrow)"/>
<text x="190.0" y="368.5" text-anchor="middle" font-family="Arial,sans-serif" font-size="7" fill="#0077b6">BINDER_CALL x3 0.22ms</text>
<line x1="80.0" y1="460.0" x2="300.0" y2="355.0" stroke="#0077b6" stroke-width="1.2" marker-end="url(#arrow)"/>
<text x="190.0" y="403.5" text-anchor="middle" font-family="Arial,sans-serif" font-size="7" fill="#0077b6">BINDER_CALL x2 0.14ms</text>
<line x1="80.0" y1="530.0" x2="300.0" y2="355.0" stroke="#0077b6" stroke-width="1.2" marker-end="url(#arrow)"/>
<text x="190.0" y="438.5" text-anchor="middle" font-family="Arial,sans-serif" font-size="7" fill="#0077b6">BINDER_CALL 0.04ms</text>
<line x1="80.0" y1="600.0" x2="300.0" y2="355.0" stroke="#0077b6" stroke-width="1.2" marker-end="url(#arrow)"/>
<text x="190.0" y="473.5" text-anchor="middle" font-family="Arial,sans-serif" font-size="7" fill="#0077b6">BINDER_CALL 0.08ms</text>
<line x1="80.0" y1="320.0" x2="300.0" y2="285.0" stroke="#0077b6" stroke-width="1.2" marker-end="url(#arrow)"/>
<text x="190.0" y="298.5" text-anchor="middle" font-family="Arial,sans-serif" font-size="7" fill="#0077b6">BINDER_CALL 0.11ms</text>
<line x1="80.0" y1="320.0" x2="300.0" y2="425.0" stroke="#0077b6" stroke-width="1.2" marker-end="url(#arrow)"/>
<text x="190.0" y="368.5" text-anchor="middle" font-family="Arial,sans-serif" font-size="7" fill="#0077b6">BINDER_CALL 0.00ms</text>
<line x1="80.0" y1="320.0" x2="300.0" y2="565.0" stroke="#6a4c93" stroke-width="1.2" marker-end="url(#arrow)"/>
<text x="190.0" y="438.5" text-anchor="middle" font-family="Arial,sans-serif" font-size="7" fill="#6a4c93">FUTEX_WAIT x548 22.77ms</text>
<line x1="520.0" y1="355.0" x2="300.0" y2="285.0" stroke="#0077b6" stroke-width="1.2" marker-end="url(#arrow)"/>
<text x="410.0" y="316.0" text-anchor="middle" font-family="Arial,sans-serif" font-size="7" fill="#0077b6">BINDER_CALL x4 0.66ms</text>
<line x1="520.0" y1="355.0" x2="740.0" y2="460.0" stroke="#6a4c93" stroke-width="1.2" marker-end="url(#arrow)"/>
<text x="630.0" y="403.5" text-anchor="middle" font-family="Arial,sans-serif" font-size="7" fill="#6a4c93">FUTEX_WAIT x1847 85.85ms</text>
<line x1="80.0" y1="670.0" x2="300.0" y2="355.0" stroke="#0077b6" stroke-width="1.2" marker-end="url(#arrow)"/>
<text x="190.0" y="508.5" text-anchor="middle" font-family="Arial,sans-serif" font-size="7" fill="#0077b6">BINDER_CALL 0.08ms</text>
<line x1="80.0" y1="110.0" x2="300.0" y2="495.0" stroke="#6a4c93" stroke-width="1.2" marker-end="url(#arrow)"/>
<text x="190.0" y="298.5" text-anchor="middle" font-family="Arial,sans-serif" font-size="7" fill="#6a4c93">FUTEX_WAIT x9 197.07ms</text>
<line x1="960.0" y1="425.0" x2="960.0" y2="495.0" stroke="#0077b6" stroke-width="1.2" marker-end="url(#arrow)"/>
<text x="960.0" y="456.0" text-anchor="middle" font-family="Arial,sans-serif" font-size="7" fill="#0077b6">BINDER_CALL x2 0.14ms</text>
<line x1="960.0" y1="425.0" x2="300.0" y2="285.0" stroke="#0077b6" stroke-width="1.2" marker-end="url(#arrow)"/>
<text x="630.0" y="351.0" text-anchor="middle" font-family="Arial,sans-serif" font-size="7" fill="#0077b6">BINDER_CALL 0.04ms</text>
<line x1="300.0" y1="355.0" x2="520.0" y2="495.0" stroke="#6a4c93" stroke-width="1.2" marker-end="url(#arrow)"/>
<text x="410.0" y="421.0" text-anchor="middle" font-family="Arial,sans-serif" font-size="7" fill="#6a4c93">FUTEX_WAIT x314 11.51ms</text>
<line x1="300.0" y1="635.0" x2="520.0" y2="565.0" stroke="#6a4c93" stroke-width="1.2" marker-end="url(#arrow)"/>
<text x="410.0" y="596.0" text-anchor="middle" font-family="Arial,sans-serif" font-size="7" fill="#6a4c93">FRAME_DEPENDENCY</text>
<line x1="80.0" y1="810.0" x2="300.0" y2="635.0" stroke="#6a4c93" stroke-width="1.2" marker-end="url(#arrow)"/>
<text x="190.0" y="718.5" text-anchor="middle" font-family="Arial,sans-serif" font-size="7" fill="#6a4c93">FRAME_DEPENDENCY</text>
<line x1="300.0" y1="495.0" x2="520.0" y2="425.0" stroke="#6a4c93" stroke-width="1.2" marker-end="url(#arrow)"/>
<text x="410.0" y="456.0" text-anchor="middle" font-family="Arial,sans-serif" font-size="7" fill="#6a4c93">FRAME_DEPENDENCY</text>
<line x1="80.0" y1="740.0" x2="300.0" y2="495.0" stroke="#6a4c93" stroke-width="1.2" marker-end="url(#arrow)"/>
<text x="190.0" y="613.5" text-anchor="middle" font-family="Arial,sans-serif" font-size="7" fill="#6a4c93">FRAME_DEPENDENCY</text>
</svg>
